# Blender v2.76 (sub 0) OBJ File: ''
# www.blender.org
mtllib skybox.mtl
o Cube
v 75.723579 -75.723579 -75.723579
v 75.723579 -75.723579 75.723579
v -75.723579 -75.723579 75.723564
v -75.723549 -75.723579 -75.723610
v 75.723618 75.723579 -75.723541
v 75.723534 75.723579 75.723625
v -75.723610 75.723579 75.723549
v -75.723572 75.723579 -75.723579
vt 0.250097 0.749909
vt 0.499891 0.749855
vt 0.499772 0.999812
vt 0.250247 0.500297
vt 0.250274 0.250285
vt 0.499999 0.250459
vt 0.000117 0.749842
vt 0.000137 0.500150
vt 0.749880 0.749877
vt 0.749992 0.500248
vt 0.999923 0.500136
vt 0.499948 0.500143
vt 0.250204 0.999758
vt 0.999763 0.749807
vn 0.000000 1.000000 0.000000
vn 0.000000 -1.000000 0.000000
vn -1.000000 -0.000000 -0.000000
vn 0.000000 -0.000000 -1.000000
vn 1.000000 0.000000 0.000000
vn -0.000000 -0.000000 1.000000
usemtl Material
s off
f 1/1/1 4/2/1 3/3/1
f 5/4/2 6/5/2 7/6/2
f 2/7/3 6/8/3 5/4/3
f 3/9/4 7/10/4 6/11/4
f 3/9/5 4/2/5 8/12/5
f 8/12/6 4/2/6 1/1/6
f 2/13/1 1/1/1 3/3/1
f 8/12/2 5/4/2 7/6/2
f 1/1/3 2/7/3 5/4/3
f 2/14/4 3/9/4 6/11/4
f 7/10/5 3/9/5 8/12/5
f 5/4/6 8/12/6 1/1/6
